<svg width="50" height="45" viewBox="0 0 50 45" fill="none" xmlns="http://www.w3.org/2000/svg">
<path d="M35.6797 0C44.1517 0 49.1579 4.86411 49.1579 13.1222V13.2139H38.7477C33.9032 13.2224 29.9786 17.0489 29.9698 21.7724C29.9633 26.5065 33.8922 30.3501 38.7477 30.3565H49.1667V31.1086C49.1667 39.3667 44.1604 44.25 35.6884 44.25H13.4804C5.00626 44.25 0 39.3667 0 31.1086V13.1222C0 4.86411 5.00626 0 13.4804 0H35.6797ZM25.5252 9.5258H11.6514C10.62 9.53008 9.78307 10.3461 9.77869 11.3539C9.77433 12.3659 10.6134 13.1904 11.6514 13.1947H25.5426C26.5806 13.1904 27.4197 12.3659 27.4154 11.3517C27.411 10.3397 26.5631 9.52156 25.5252 9.5258Z" fill="#596AFF"/>
<path opacity="0.4" d="M34.5086 22.8543C35.0227 25.1926 37.0728 26.8378 39.4134 26.795H47.4029C48.3767 26.795 49.1667 25.9885 49.1667 24.9915V18.7681C49.1646 17.7733 48.3767 16.9646 47.4029 16.9625H39.2254C36.5629 16.9711 34.4125 19.181 34.4167 21.9044C34.4167 22.2232 34.448 22.542 34.5086 22.8543Z" fill="#596AFF"/>
<path d="M39.3333 24.3375C40.691 24.3375 41.7917 23.2369 41.7917 21.8792C41.7917 20.5215 40.691 19.4208 39.3333 19.4208C37.9756 19.4208 36.875 20.5215 36.875 21.8792C36.875 23.2369 37.9756 24.3375 39.3333 24.3375Z" fill="#596AFF"/>
</svg>
